# xmcd
#
# Track frame offsets:
#	150
#	16380
#	48962
#
# Disc length: 1122 seconds
#
# Revision: 0
# Processed by: cddbd v1.5.1PL2 Copyright (c) Steve Scherf et al.
# Submitted via: audiograbber 1.83.01
#
DISCID=1a046003
DTITLE=Phoebe One - Get Onit (Feat. Blu James)
DYEAR=1999
DGENRE=R&B
TTITLE0=Get Onit (7'' Edit)
TTITLE1=Get Onit (Sharp Boys Club Mix)
TTITLE2=Get Onit (The Flowin' Underground Mix)
EXTD=
EXTT0=
EXTT1=
EXTT2=
PLAYORDER=
